<?xml version="1.0" encoding="iso-8859-1"?>
<!-- Generator: Adobe Illustrator 16.0.0, SVG Export Plug-In . SVG Version: 6.00 Build 0)  -->
<!DOCTYPE svg PUBLIC "-//W3C//DTD SVG 1.1//EN" "http://www.w3.org/Graphics/SVG/1.1/DTD/svg11.dtd">
<svg version="1.1" id="Capa_1" xmlns="http://www.w3.org/2000/svg" xmlns:xlink="http://www.w3.org/1999/xlink" x="0px" y="0px"
	 width="472.55px" height="472.55px" viewBox="0 0 472.55 472.55" style="enable-background:new 0 0 472.55 472.55;"
	 xml:space="preserve">
<g>
	<path d="M381.172,327.652c0,79.902-65.004,144.898-144.898,144.898c-79.895,0-144.896-64.996-144.896-144.898
		c0-57.089,33.941-108.812,85.505-132.027V31.327h-24.144c-8.657,0-15.672-7.01-15.672-15.661c0-8.651,7.016-15.662,15.672-15.662
		h39.805c8.646,0,15.665,7.011,15.665,15.662v190.508c0,6.607-4.149,12.495-10.357,14.741
		c-44.943,16.187-75.14,59.082-75.14,106.747c0,8.058,0.875,15.902,2.47,23.492h222.187c1.604-7.59,2.469-15.435,2.469-23.492
		c0-47.124-29.741-89.85-74.004-106.332c-6.132-2.281-10.193-8.136-10.193-14.681V15.661C265.64,7.01,272.656,0,281.312,0h37.867
		c8.644,0,15.66,7.01,15.66,15.661c0,8.651-7.017,15.661-15.66,15.661h-22.207v164.891
		C347.76,219.711,381.172,271.214,381.172,327.652z M203.653,300.244c6.477,0,11.743,5.269,11.743,11.748
		c0,6.48-5.262,11.753-11.743,11.753c-6.485,0-11.756-5.269-11.756-11.753C191.897,305.512,197.168,300.244,203.653,300.244z
		 M203.653,308.074c-2.159,0-3.919,1.751-3.919,3.918c0,2.156,1.76,3.912,3.919,3.912c2.155,0,3.904-1.756,3.904-3.912
		C207.557,309.83,205.809,308.074,203.653,308.074z M219.956,261.08c0-8.996,7.326-16.317,16.317-16.317
		c9.004,0,16.334,7.321,16.334,16.317c0,9.002-7.33,16.323-16.334,16.323C227.282,277.403,219.956,270.082,219.956,261.08z
		 M227.779,261.08c0,4.684,3.811,8.493,8.494,8.493c4.689,0,8.495-3.81,8.495-8.493c0-4.679-3.806-8.487-8.495-8.487
		C231.59,252.592,227.779,256.396,227.779,261.08z"/>
</g>
<g>
</g>
<g>
</g>
<g>
</g>
<g>
</g>
<g>
</g>
<g>
</g>
<g>
</g>
<g>
</g>
<g>
</g>
<g>
</g>
<g>
</g>
<g>
</g>
<g>
</g>
<g>
</g>
<g>
</g>
</svg>
