<?xml version="1.0" encoding="utf-8"?>
<svg version="1.1" xmlns="http://www.w3.org/2000/svg" xmlns:xlink="http://www.w3.org/1999/xlink"
	 x="0px" y="0px" viewBox="0 0 33 35" style="enable-background:new 0 0 33 35;" xml:space="preserve">
<path fill="#878787" d="M24.8,25.4c2.8-2.7,4.6-6.5,4.6-10.7C29.5,6.6,22.9,0,14.7,0C6.6,0,0,6.6,0,14.7c0,8.1,6.6,14.7,14.7,14.7
	c3.2,0,6.1-1,8.6-2.8l8.3,8.3l1.4-1.4L24.8,25.4z M14.7,27.5C7.7,27.5,2,21.8,2,14.7S7.7,2,14.7,2s12.7,5.7,12.7,12.7
	S21.8,27.5,14.7,27.5z"/>
</svg>
